HIERARCHY
ROOT hip
{
  OFFSET 0 0 0
  CHANNELS 6 Xposition Yposition Zposition Zrotation Yrotation Xrotation
  JOINT abdomen
  {
    OFFSET 0 20.6881 -0.73152
    CHANNELS 3 Zrotation Xrotation Yrotation
    JOINT chest
    {
      OFFSET 0 11.7043 -0.48768
      CHANNELS 3 Zrotation Xrotation Yrotation
      JOINT neck
      {
        OFFSET 0 22.1894 -2.19456
        CHANNELS 3 Zrotation Xrotation Yrotation
        JOINT head
        {
          OFFSET -0.24384 7.07133 1.2192
          CHANNELS 3 Zrotation Xrotation Yrotation
          JOINT leftEye
          {
            OFFSET 4.14528 8.04674 8.04672
            CHANNELS 3 Zrotation Xrotation Yrotation
            End Site
            {
              OFFSET 1 0 0
            }
          }
          JOINT rightEye
          {
            OFFSET -3.6576 8.04674 8.04672
            CHANNELS 3 Zrotation Xrotation Yrotation
            End Site
            {
              OFFSET 1 0 0
            }
          }
        }
      }
      JOINT rCollar
      {
        OFFSET -2.68224 19.2634 -4.8768
        CHANNELS 3 Zrotation Xrotation Yrotation
        JOINT rShldr
        {
          OFFSET -8.77824 -1.95073 1.46304
          CHANNELS 3 Zrotation Xrotation Yrotation
          JOINT rForeArm
          {
            OFFSET -28.1742 -1.7115 0.48768
            CHANNELS 3 Zrotation Xrotation Yrotation
            JOINT rHand
            {
              OFFSET -22.5879 0.773209 7.07136
              CHANNELS 3 Zrotation Xrotation Yrotation
              JOINT rThumb1
              {
                OFFSET -1.2192 -0.487915 3.41376
                CHANNELS 3 Zrotation Xrotation Yrotation
                JOINT rThumb2
                {
                  OFFSET -3.37035 -0.52449 3.41376
                  CHANNELS 3 Zrotation Xrotation Yrotation
                  End Site
                  {
                    OFFSET -1.78271 -1.18214 1.43049
                  }
                }
              }
              JOINT rIndex1
              {
                OFFSET -7.75947 0.938293 5.60832
                CHANNELS 3 Zrotation Xrotation Yrotation
                JOINT rIndex2
                {
                  OFFSET -2.54057 -0.884171 1.56538
                  CHANNELS 3 Zrotation Xrotation Yrotation
                  End Site
                  {
                    OFFSET -1.62519 -0.234802 1.16502
                  }
                }
              }
              JOINT rMid1
              {
                OFFSET -8.24714 1.18213 3.41376
                CHANNELS 3 Zrotation Xrotation Yrotation
                JOINT rMid2
                {
                  OFFSET -3.10165 -0.590103 1.0647
                  CHANNELS 3 Zrotation Xrotation Yrotation
                  End Site
                  {
                    OFFSET -2.48547 -0.328903 0.83742
                  }
                }
              }
              JOINT rRing1
              {
                OFFSET -8.82822 0.546677 1.51678
                CHANNELS 3 Zrotation Xrotation Yrotation
                JOINT rRing2
                {
                  OFFSET -2.60934 -0.819778 -0.0198488
                  CHANNELS 3 Zrotation Xrotation Yrotation
                  End Site
                  {
                    OFFSET -2.33842 -0.294052 0.168128
                  }
                }
              }
              JOINT rPinky1
              {
                OFFSET -8.27202 -0.0477905 -0.4584
                CHANNELS 3 Zrotation Xrotation Yrotation
                JOINT rPinky2
                {
                  OFFSET -1.82734 -0.647385 -0.700984
                  CHANNELS 3 Zrotation Xrotation Yrotation
                  End Site
                  {
                    OFFSET -1.69225 -0.51767 -0.607171
                  }
                }
              }
            }
          }
        }
      }
      JOINT lCollar
      {
        OFFSET 2.68224 19.2634 -4.8768
        CHANNELS 3 Zrotation Xrotation Yrotation
        JOINT lShldr
        {
          OFFSET 8.77824 -1.95073 1.46304
          CHANNELS 3 Zrotation Xrotation Yrotation
          JOINT lForeArm
          {
            OFFSET 28.1742 -1.7115 0.48768
            CHANNELS 3 Zrotation Xrotation Yrotation
            JOINT lHand
            {
              OFFSET 22.5879 0.773209 7.07136
              CHANNELS 3 Zrotation Xrotation Yrotation
              JOINT lThumb1
              {
                OFFSET 1.2192 -0.487915 3.41376
                CHANNELS 3 Zrotation Xrotation Yrotation
                JOINT lThumb2
                {
                  OFFSET 3.37035 -0.52449 3.41376
                  CHANNELS 3 Zrotation Xrotation Yrotation
                  End Site
                  {
                    OFFSET 1.78271 -1.18214 1.43049
                  }
                }
              }
              JOINT lIndex1
              {
                OFFSET 7.75947 0.938293 5.60832
                CHANNELS 3 Zrotation Xrotation Yrotation
                JOINT lIndex2
                {
                  OFFSET 2.54057 -0.884171 1.56538
                  CHANNELS 3 Zrotation Xrotation Yrotation
                  End Site
                  {
                    OFFSET 1.62519 -0.234802 1.16502
                  }
                }
              }
              JOINT lMid1
              {
                OFFSET 8.24714 1.18213 3.41376
                CHANNELS 3 Zrotation Xrotation Yrotation
                JOINT lMid2
                {
                  OFFSET 3.10165 -0.590103 1.0647
                  CHANNELS 3 Zrotation Xrotation Yrotation
                  End Site
                  {
                    OFFSET 2.48547 -0.328903 0.83742
                  }
                }
              }
              JOINT lRing1
              {
                OFFSET 8.82822 0.546677 1.51678
                CHANNELS 3 Zrotation Xrotation Yrotation
                JOINT lRing2
                {
                  OFFSET 2.60934 -0.819778 -0.0198488
                  CHANNELS 3 Zrotation Xrotation Yrotation
                  End Site
                  {
                    OFFSET 2.33842 -0.294052 0.168128
                  }
                }
              }
              JOINT lPinky1
              {
                OFFSET 8.27202 -0.0477905 -0.4584
                CHANNELS 3 Zrotation Xrotation Yrotation
                JOINT lPinky2
                {
                  OFFSET 1.82734 -0.647385 -0.700984
                  CHANNELS 3 Zrotation Xrotation Yrotation
                  End Site
                  {
                    OFFSET 1.69225 -0.51767 -0.607171
                  }
                }
              }
            }
          }
        }
      }
    }
  }
  JOINT rButtock
  {
    OFFSET -8.77824 4.35084 1.2192
    CHANNELS 3 Zrotation Xrotation Yrotation
    JOINT rThigh
    {
      OFFSET 0 -1.70687 -2.19456
      CHANNELS 3 Zrotation Xrotation Yrotation
      JOINT rShin
      {
        OFFSET 0 -36.8199 0.73152
        CHANNELS 3 Zrotation Xrotation Yrotation
        JOINT rFoot
        {
          OFFSET 0.73152 -45.1104 -5.12064
          CHANNELS 3 Zrotation Xrotation Yrotation
          End Site
          {
            OFFSET -1.1221 -3.69964 12.103
          }
        }
      }
    }
  }
  JOINT lButtock
  {
    OFFSET 8.77824 4.35084 1.2192
    CHANNELS 3 Zrotation Xrotation Yrotation
    JOINT lThigh
    {
      OFFSET 0 -1.70687 -2.19456
      CHANNELS 3 Zrotation Xrotation Yrotation
      JOINT lShin
      {
        OFFSET 0 -36.8199 0.73152
        CHANNELS 3 Zrotation Xrotation Yrotation
        JOINT lFoot
        {
          OFFSET -0.73152 -45.1104 -5.12064
          CHANNELS 3 Zrotation Xrotation Yrotation
          End Site
          {
            OFFSET 1.1221 -3.69964 12.103
          }
        }
      }
    }
  }
}
MOTION
Frames:	9
Frame Time:	0.00833333
66.8161 4.43885 -5.34998 -175.6 78.0673 153.381 -7.70901 52.5092 1.28012 2.25008 0.610108 1.23071 5.48803 7.3963 -0.00726038 -3.41786 -3.8092 -0.223441 -0.0 0.0 0.0 -0.0 0.0 0.0 -2.2579e-13 1.79918e-13 2.76857e-13 81.7627 39.6605 -21.2053 -27.493 -28.152 64.306 -16.2775 -70.2149 -22.9972 2.17635e-09 -3.83572e-10 -1.27836e-09 3.81114e-09 -5.31207e-10 -2.07643e-09 2.17635e-09 -3.8357e-10 -1.27837e-09 7.73091 5.47488 0.417314 2.17634e-09 -3.83572e-10 -1.27836e-09 2.90554 0.965183 0.102902 2.17635e-09 -3.83572e-10 -1.27836e-09 10.2786 0.731801 0.0259123 2.17634e-09 -3.8357e-10 -1.27835e-09 2.22167 -0.733487 -0.20892 -2.25863e-13 1.79882e-13 2.76509e-13 -49.3919 52.481 5.07407 27.0684 -26.569 -61.7873 8.94339 -61.474 14.9849 -3.54623e-09 1.06077e-10 -2.01606e-10 -6.08256e-09 2.88957e-10 -5.12243e-10 -3.54623e-09 1.06077e-10 -2.01596e-10 -7.73091 5.47488 -0.417314 -3.54623e-09 1.06078e-10 -2.01612e-10 -2.90554 0.965183 -0.102902 -3.54624e-09 1.06078e-10 -2.0161e-10 -10.2786 0.731801 -0.0259123 -3.54623e-09 1.06078e-10 -2.01619e-10 -2.22167 -0.733487 0.20892 -2.03217e-16 0.0 -3.88251e-19 -14.0354 -49.9909 -37.1043 -0.615123 77.991 7.40816 4.10052 -29.3588 -10.1866 2.03217e-16 0.0 3.88251e-19 22.3784 -38.1894 32.5143 -0.00747647 74.9195 -7.44105 -3.25157 -27.6794 -3.90709
66.9053 4.40121 -5.38009 -175.012 77.9612 154.559 -7.91074 52.7078 1.56309 2.20938 0.242855 1.27134 5.52755 7.25893 -0.0763471 -3.38963 -4.01978 -0.406416 -0.0 0.0 0.0 -0.0 0.0 0.0 -1.57168e-13 4.43119e-13 2.38643e-13 81.9069 39.7193 -20.6377 -27.3844 -27.7274 63.6637 -15.6062 -69.669 -22.2835 1.17346e-09 -3.25485e-10 -9.25463e-10 2.07067e-09 -4.60632e-10 -1.52439e-09 1.17346e-09 -3.25483e-10 -9.25471e-10 7.73091 5.47488 0.417314 1.17345e-09 -3.25485e-10 -9.25466e-10 2.90554 0.965183 0.102902 1.17346e-09 -3.25485e-10 -9.25461e-10 10.2786 0.731801 0.0259123 1.17345e-09 -3.25483e-10 -9.25454e-10 2.22167 -0.733487 -0.20892 -1.57236e-13 4.43088e-13 2.38303e-13 -48.8521 52.807 4.51377 27.0444 -26.4876 -61.6625 9.30727 -62.1066 15.3976 -2.6888e-09 9.55436e-11 -1.47774e-10 -4.61303e-09 2.49005e-10 -3.78552e-10 -2.68881e-09 9.5544e-11 -1.47763e-10 -7.73091 5.47488 -0.417314 -2.6888e-09 9.55446e-11 -1.4778e-10 -2.90554 0.965183 -0.102902 -2.68881e-09 9.55446e-11 -1.47778e-10 -10.2786 0.731801 -0.0259123 -2.6888e-09 9.55448e-11 -1.47786e-10 -2.22167 -0.733487 0.20892 -2.03217e-16 0.0 -3.88251e-19 -13.6736 -50.194 -36.9798 -0.62271 78.1496 7.44091 4.10455 -29.4738 -10.4276 2.03217e-16 0.0 3.88251e-19 22.3487 -38.565 32.9016 0.00264835 75.1023 -7.45696 -3.25707 -27.7981 -3.68915
67.0632 4.29291 -5.3637 -174.882 78.0496 155.372 -8.1529 52.956 1.93638 2.19449 -0.214356 1.32589 5.54109 7.08337 -0.158818 -3.37855 -4.10637 -0.605164 -0.0 0.0 0.0 -0.0 0.0 0.0 -5.13089e-14 6.70337e-13 1.5817e-13 82.046 39.7861 -20.1396 -27.2914 -27.375 63.1208 -14.5459 -68.7274 -21.1498 -5.19117e-10 -1.78371e-10 -2.92826e-10 -8.69763e-10 -2.71598e-10 -5.28439e-10 -5.19114e-10 -1.7837e-10 -2.92835e-10 7.73091 5.47488 0.417314 -5.19118e-10 -1.78372e-10 -2.92828e-10 2.90554 0.965183 0.102902 -5.19112e-10 -1.78372e-10 -2.92826e-10 10.2786 0.731801 0.0259123 -5.19121e-10 -1.78369e-10 -2.92823e-10 2.22167 -0.733487 -0.20892 -5.13697e-14 6.70317e-13 1.57875e-13 -48.3232 53.1663 3.95427 27.0194 -26.4044 -61.5388 9.66501 -62.7008 15.8014 -1.02297e-09 6.02252e-11 -7.30235e-11 -1.75602e-09 1.41682e-10 -1.70756e-10 -1.02297e-09 6.02262e-11 -7.30092e-11 -7.73091 5.47488 -0.417314 -1.02297e-09 6.0226e-11 -7.30273e-11 -2.90554 0.965183 -0.102902 -1.02298e-09 6.02257e-11 -7.30251e-11 -10.2786 0.731801 -0.0259123 -1.02297e-09 6.02261e-11 -7.30329e-11 -2.22167 -0.733487 0.20892 -2.03217e-16 0.0 -3.88251e-19 -13.1339 -50.3202 -36.7022 -0.631953 78.3134 7.47367 4.10998 -29.5896 -10.638 2.03217e-16 0.0 3.88251e-19 22.3024 -38.8738 33.3076 0.0169935 75.2948 -7.46917 -3.27192 -27.9283 -3.33288
67.0436 4.22681 -5.47422 -175.044 77.7583 155.756 -8.34287 53.1396 2.27512 2.19253 -0.631579 1.37659 5.54404 6.91568 -0.243622 -3.37078 -4.19441 -0.805119 -0.0 0.0 0.0 -0.0 0.0 0.0 5.23927e-14 8.34328e-13 7.1828e-14 82.0876 39.8041 -19.5827 -27.1982 -27.0293 62.5581 -13.531 -67.7222 -20.0564 -2.17028e-09 -1.82862e-11 3.445e-10 -3.73971e-09 -6.29026e-11 4.77818e-10 -2.17027e-09 -1.82861e-11 3.44489e-10 7.73091 5.47488 0.417314 -2.17028e-09 -1.82872e-11 3.44497e-10 2.90554 0.965183 0.102902 -2.17027e-09 -1.82874e-11 3.44497e-10 10.2786 0.731801 0.0259123 -2.17028e-09 -1.82844e-11 3.44497e-10 2.22167 -0.733487 -0.20892 5.23319e-14 8.3432e-13 7.15885e-14 -47.7315 53.5919 3.31724 26.9844 -26.2876 -61.3537 10.0148 -63.2558 16.1942 6.98882e-10 1.77377e-11 -2.81151e-12 1.19757e-09 2.01963e-11 3.17295e-11 6.98881e-10 1.77393e-11 -2.79511e-12 -7.73091 5.47488 -0.417314 6.9888e-10 1.77384e-11 -2.81288e-12 -2.90554 0.965183 -0.102902 6.98871e-10 1.77378e-11 -2.81151e-12 -10.2786 0.731801 -0.0259123 6.98883e-10 1.77383e-11 -2.81835e-12 -2.22167 -0.733487 0.20892 -2.03217e-16 0.0 -3.88251e-19 -12.6105 -50.4763 -36.4587 -0.642139 78.4741 7.50551 4.11917 -29.7002 -10.8596 2.03217e-16 0.0 3.88251e-19 22.248 -39.2094 33.6899 0.0318273 75.4805 -7.47988 -3.29171 -28.0551 -2.92559
67.1145 4.20056 -5.44602 -176.668 78.2973 154.408 -8.38134 53.1461 2.44908 2.18973 -0.878892 1.40558 5.55217 6.8019 -0.319751 -3.3541 -4.40933 -0.991837 -0.0 0.0 0.0 -0.0 0.0 0.0 1.14541e-13 9.07849e-13 1.60022e-14 81.9432 39.7133 -18.8404 -27.0822 -26.6164 61.8629 -12.8626 -66.996 -19.3313 -3.04893e-09 7.8714e-11 7.11461e-10 -5.26873e-09 6.66549e-11 1.06079e-09 -3.04893e-09 7.87136e-11 7.11449e-10 7.73091 5.47488 0.417314 -3.04893e-09 7.87128e-11 7.11458e-10 2.90554 0.965183 0.102902 -3.04893e-09 7.87125e-11 7.11457e-10 10.2786 0.731801 0.0259123 -3.04894e-09 7.87155e-11 7.11455e-10 2.22167 -0.733487 -0.20892 1.14467e-13 9.07849e-13 1.58034e-14 -46.9961 54.1151 2.51868 26.9289 -26.1036 -61.0458 10.3549 -63.7712 16.5741 1.72438e-09 -1.43025e-11 3.74033e-11 2.95687e-09 -6.22435e-11 1.49488e-10 1.72437e-09 -1.43006e-11 3.74192e-11 -7.73091 5.47488 -0.417314 1.72437e-09 -1.43019e-11 3.74033e-11 -2.90554 0.965183 -0.102902 1.72436e-09 -1.43027e-11 3.74033e-11 -10.2786 0.731801 -0.0259123 1.72438e-09 -1.43022e-11 3.7397e-11 -2.22167 -0.733487 0.20892 -2.03217e-16 0.0 -3.88251e-19 -12.2983 -50.7708 -36.4379 -0.652401 78.6232 7.53534 4.13416 -29.7995 -11.1339 2.03217e-16 0.0 3.88251e-19 22.1952 -39.6663 34.0084 0.0434968 75.643 -7.49131 -3.31325 -28.1648 -2.55524
67.2856 4.13433 -5.51667 -174.529 77.8801 157.694 -8.14991 52.8807 2.33509 2.18852 -0.848808 1.39872 5.57194 6.76672 -0.385404 -3.32883 -4.83219 -1.16661 -0.0 0.0 0.0 -0.0 0.0 0.0 1.14109e-13 8.3998e-13 5.02941e-15 81.5246 39.3862 -17.7914 -26.9255 -26.089 60.9921 -12.5593 -66.6492 -19.001 -2.71848e-09 7.91753e-11 6.50387e-10 -4.69877e-09 7.68085e-11 9.72696e-10 -2.71848e-09 7.91748e-11 6.50374e-10 7.73091 5.47488 0.417314 -2.71848e-09 7.91741e-11 6.50383e-10 2.90554 0.965183 0.102902 -2.71848e-09 7.91738e-11 6.50382e-10 10.2786 0.731801 0.0259123 -2.71849e-09 7.91763e-11 6.50381e-10 2.22167 -0.733487 -0.20892 1.14004e-13 8.39982e-13 4.85237e-15 -45.9797 54.7391 1.41555 26.8427 -25.8251 -60.5897 10.742 -64.3322 17.0045 1.67171e-09 -3.1728e-11 3.5486e-11 2.86689e-09 -8.55427e-11 1.43495e-10 1.6717e-09 -3.17257e-11 3.54968e-11 -7.73091 5.47488 -0.417314 1.6717e-09 -3.17271e-11 3.54859e-11 -2.90554 0.965183 -0.102902 1.6717e-09 -3.17279e-11 3.54831e-11 -10.2786 0.731801 -0.0259123 1.67171e-09 -3.17275e-11 3.54764e-11 -2.22167 -0.733487 0.20892 -2.03217e-16 0.0 -3.88251e-19 -12.3376 -51.2754 -36.8081 -0.660697 78.7609 7.56396 4.16057 -29.8882 -11.5388 2.03217e-16 0.0 3.88251e-19 22.1355 -40.3442 34.2096 0.0524576 75.7748 -7.50198 -3.34064 -28.2486 -2.23429
67.336 4.11435 -5.52912 -174.964 78.1778 157.811 -7.7363 52.4249 2.03544 2.19396 -0.634903 1.36863 5.59452 6.78147 -0.446115 -3.30204 -5.38018 -1.33565 -0.0 0.0 0.0 -0.0 0.0 0.0 7.56148e-14 6.59803e-13 1.7959e-14 80.9242 38.8802 -16.5473 -26.7332 -25.4804 60.0184 -12.4304 -66.4999 -18.8605 -1.64939e-09 2.80517e-11 3.3608e-10 -2.84716e-09 2.48908e-11 4.88834e-10 -1.64939e-09 2.80512e-11 3.36067e-10 7.73091 5.47488 0.417314 -1.6494e-09 2.80507e-11 3.36073e-10 2.90554 0.965183 0.102902 -1.64939e-09 2.80502e-11 3.36074e-10 10.2786 0.731801 0.0259123 -1.6494e-09 2.80519e-11 3.36077e-10 2.22167 -0.733487 -0.20892 7.54666e-14 6.59803e-13 1.77974e-14 -44.7318 55.4404 0.0665264 26.7284 -25.4686 -60.0258 11.1607 -64.9105 17.4679 1.00253e-09 -4.37572e-11 6.79625e-12 1.71969e-09 -8.00478e-11 6.2055e-11 1.00253e-09 -4.37547e-11 6.79883e-12 -7.73091 5.47488 -0.417314 1.00253e-09 -4.3756e-11 6.79545e-12 -2.90554 0.965183 -0.102902 1.00252e-09 -4.37566e-11 6.78855e-12 -10.2786 0.731801 -0.0259123 1.00253e-09 -4.37566e-11 6.78114e-12 -2.22167 -0.733487 0.20892 -2.03217e-16 0.0 -3.88251e-19 -12.6136 -51.9136 -37.4478 -0.667895 78.8909 7.59139 4.19501 -29.9676 -12.03 2.03217e-16 0.0 3.88251e-19 22.0662 -41.1706 34.3331 0.0600467 75.8857 -7.51124 -3.37453 -28.3156 -1.91978
67.36 4.0652 -5.61338 -174.583 77.5152 158.827 -7.34265 51.9319 1.75192 2.19564 -0.408872 1.33755 5.61292 6.81209 -0.501889 -3.27135 -5.93295 -1.4919 -0.0 0.0 0.0 -0.0 0.0 0.0 2.79793e-14 4.60076e-13 3.82466e-14 80.306 38.4186 -15.3194 -26.5158 -24.8345 59.0039 -12.4055 -66.4728 -18.8336 -4.71165e-10 -3.31002e-11 -7.8015e-12 -8.06503e-10 -4.14991e-11 -3.97521e-11 -4.71159e-10 -3.31005e-11 -7.81412e-12 7.73091 5.47488 0.417314 -4.71166e-10 -3.31009e-11 -7.81039e-12 2.90554 0.965183 0.102902 -4.71158e-10 -3.31015e-11 -7.80768e-12 10.2786 0.731801 0.0259123 -4.71172e-10 -3.31007e-11 -7.8018e-12 2.22167 -0.733487 -0.20892 2.77816e-14 4.60074e-13 3.80944e-14 -43.4573 56.2146 -1.30623 26.5942 -25.0657 -59.3915 11.483 -65.3363 17.8231 2.29668e-10 -5.28535e-11 -3.2882e-11 3.94915e-10 -6.82119e-11 -4.32547e-11 2.29666e-10 -5.28509e-11 -3.28873e-11 -7.73091 5.47488 -0.417314 2.29668e-10 -5.2852e-11 -3.28839e-11 -2.90554 0.965183 -0.102902 2.2966e-10 -5.28525e-11 -3.2894e-11 -10.2786 0.731801 -0.0259123 2.2967e-10 -5.28526e-11 -3.29022e-11 -2.22167 -0.733487 0.20892 -2.03217e-16 0.0 -3.88251e-19 -12.9293 -52.576 -38.1038 -0.677308 79.0101 7.61515 4.22689 -30.0335 -12.4657 2.03217e-16 0.0 3.88251e-19 22.009 -41.9802 34.4793 0.0640697 75.9853 -7.52267 -3.40718 -28.3794 -1.61678
67.4244 4.05289 -5.61478 -174.721 77.6207 159.18 -7.15693 51.5566 1.67495 2.18259 -0.342421 1.32764 5.61998 6.82459 -0.552716 -3.23276 -6.3702 -1.62802 -0.0 0.0 0.0 -0.0 0.0 0.0 1.22594e-16 3.3356e-13 4.93483e-14 79.8009 38.2377 -14.2967 -26.2901 -24.203 58.004 -12.4205 -66.4917 -18.8501 1.86706e-10 -6.27237e-11 -1.576e-10 3.30583e-10 -7.47621e-11 -2.62022e-10 1.86712e-10 -6.27237e-11 -1.57612e-10 7.73091 5.47488 0.417314 1.86705e-10 -6.27242e-11 -1.57609e-10 2.90554 0.965183 0.102902 1.86713e-10 -6.27248e-11 -1.57605e-10 10.2786 0.731801 0.0259123 1.86699e-10 -6.27245e-11 -1.57596e-10 2.22167 -0.733487 -0.20892 -1.22594e-16 3.3356e-13 4.91992e-14 -42.3813 57.0675 -2.46394 26.4505 -24.65 -58.7218 11.5637 -65.4414 17.912 -1.34075e-10 -6.14801e-11 -6.77649e-11 -2.27804e-10 -7.2488e-11 -1.20856e-10 -1.34078e-10 -6.14777e-11 -6.77744e-11 -7.73091 5.47488 -0.417314 -1.34075e-10 -6.14786e-11 -6.77681e-11 -2.90554 0.965183 -0.102902 -1.34082e-10 -6.14788e-11 -6.77784e-11 -10.2786 0.731801 -0.0259123 -1.34073e-10 -6.14789e-11 -6.77872e-11 -2.22167 -0.733487 0.20892 -2.03217e-16 0.0 -3.88251e-19 -13.0619 -53.1618 -38.499 -0.692127 79.1153 7.63265 4.24682 -30.0835 -12.7034 2.03217e-16 0.0 3.88251e-19 21.9895 -42.6047 34.7455 0.0624572 76.0836 -7.53999 -3.43056 -28.4539 -1.33024
